<?xml version="1.0" encoding="UTF-8"?>
<!-- Placeholder app icon: a simple paperclip on a rounded square. Swap this for
     the official CopyClip logo when it is ready (same filename/path). -->
<svg xmlns="http://www.w3.org/2000/svg" width="128" height="128" viewBox="0 0 128 128">
  <rect width="128" height="128" rx="28" fill="#3584e4"/>
  <g transform="translate(16,16) scale(4)" fill="#ffffff">
    <path d="M16.5 6v11.5c0 2.21-1.79 4-4 4s-4-1.79-4-4V5c0-1.38 1.12-2.5 2.5-2.5
             s2.5 1.12 2.5 2.5v10.5c0 .55-.45 1-1 1s-1-.45-1-1V6H10v9.5
             c0 1.38 1.12 2.5 2.5 2.5s2.5-1.12 2.5-2.5V5c0-2.21-1.79-4-4-4S7 2.79 7 5
             v12.5c0 3.04 2.46 5.5 5.5 5.5s5.5-2.46 5.5-5.5V6h-1.5z"/>
  </g>
</svg>
